HIERARCHY
ROOT COM
{
  OFFSET 0.000000 0.000000 0.000000
  CHANNELS 6 Xposition Yposition Zposition Zrotation Xrotation Yrotation
  JOINT Spine
  {
    OFFSET 0.000000 10.031300 -3.647750
    CHANNELS 3 Zrotation Xrotation Yrotation
    JOINT Spine1
    {
      OFFSET 0.000000 14.268000 -0.012359
      CHANNELS 3 Zrotation Xrotation Yrotation
      JOINT Spine2
      {
        OFFSET 0.000000 15.553400 -0.011802
        CHANNELS 3 Zrotation Xrotation Yrotation
        JOINT Neck
        {
          OFFSET 0.000000 15.343700 -0.005077
          CHANNELS 3 Zrotation Xrotation Yrotation
          JOINT Head
          {
            OFFSET 0.000000 6.594300 0.000000
            CHANNELS 3 Zrotation Xrotation Yrotation
            End Site
            {
              OFFSET 0.000000 0.000000 0.000000
            }
          }
          JOINT Leftcollar
          {
            OFFSET 4.254290 -1.548100 1.990670
            CHANNELS 3 Zrotation Xrotation Yrotation
            JOINT LeftArm
            {
              OFFSET 16.825900 0.000000 0.000000
              CHANNELS 3 Zrotation Xrotation Yrotation
              JOINT LeftForeArm
              {
                OFFSET 0.000000 -28.058000 0.000000
                CHANNELS 3 Zrotation Xrotation Yrotation
                JOINT LeftHand
                {
                  OFFSET 0.000000 -24.725300 0.000000
                  CHANNELS 3 Zrotation Xrotation Yrotation
                  End Site
                  {
                    OFFSET -2.986150 -9.946190 -0.575321
                  }
                }
              }
            }
          }
          JOINT RightCollar
          {
            OFFSET -4.254280 -1.548090 1.990690
            CHANNELS 3 Zrotation Xrotation Yrotation
            JOINT RightArm
            {
              OFFSET -16.825900 0.000000 0.000000
              CHANNELS 3 Zrotation Xrotation Yrotation
              JOINT RightForeArm
              {
                OFFSET 0.000000 -28.058000 0.000000
                CHANNELS 3 Zrotation Xrotation Yrotation
                JOINT RightHand
                {
                  OFFSET 0.000000 -24.725300 0.000000
                  CHANNELS 3 Zrotation Xrotation Yrotation
                  End Site
                  {
                    OFFSET 2.986150 -9.946180 -0.575319
                  }
                }
              }
            }
          }
        }
      }
    }
  }
  JOINT LeftUpLeg
  {
    OFFSET 9.942750 0.000000 0.000000
    CHANNELS 3 Zrotation Xrotation Yrotation
    JOINT LeftLeg
    {
      OFFSET 0.000000 -45.973000 0.000000
      CHANNELS 3 Zrotation Xrotation Yrotation
      JOINT LeftFoot
      {
        OFFSET 0.000000 -43.163400 0.000000
        CHANNELS 3 Zrotation Xrotation Yrotation
        JOINT LeftToe
        {
          OFFSET 0.000000 0.000000 15.628600
          CHANNELS 3 Zrotation Xrotation Yrotation
          End Site
          {
            OFFSET 0.000000 0.000000 0.000000
          }
        }
      }
    }
  }
  JOINT RightUpLeg
  {
    OFFSET -9.942750 0.000000 0.000000
    CHANNELS 3 Zrotation Xrotation Yrotation
    JOINT RightLeg
    {
      OFFSET 0.000000 -45.973000 0.000000
      CHANNELS 3 Zrotation Xrotation Yrotation
      JOINT RightFoot
      {
        OFFSET 0.000000 -43.163400 0.000000
        CHANNELS 3 Zrotation Xrotation Yrotation
        JOINT RightToe
        {
          OFFSET 0.000000 0.000000 15.628600
          CHANNELS 3 Zrotation Xrotation Yrotation
          End Site
          {
            OFFSET 0.000000 0.000000 0.000000
          }
        }
      }
    }
  }
}
MOTION
Frames: 11
Frame Time: 0.033333
31.242300 88.956700 121.410000 359.940700 354.315080 136.931000 0.236480 356.185200 0.000000 360.000000 360.000000 358.274490 360.000000 360.000000 360.000000 360.000000 360.000000 360.000000 360.000000 360.000000 360.000000 360.000000 360.000000 360.000000 28.234800 340.541600 359.572161 0.000000 304.242000 0.000000 0.000000 0.000000 90.000000 360.000000 360.000000 360.000000 336.885300 31.882100 46.316900 0.000000 343.615000 0.000000 0.000000 0.000000 270.000000 0.805130 9.985730 26.622500 360.000000 14.232100 0.000000 0.000000 356.745090 334.534100 360.000000 0.000000 360.000000 2.796760 337.113000 321.442900 360.000000 357.706830 0.000000 0.000001 32.787900 47.660700 360.000000 360.000000 0.000000 
35.002000 88.779900 118.810000 0.501047 351.492690 137.073000 2.354700 352.823140 0.000000 360.000000 0.000000 0.093548 0.000000 0.000000 0.000000 0.000000 360.000000 0.000000 0.000000 360.000000 0.000000 0.000000 360.000000 0.000000 27.303400 343.489500 358.472850 360.000000 305.679400 360.000000 0.000000 0.000000 90.000000 0.000000 360.000000 0.000000 336.863200 32.765700 47.338500 360.000000 344.059400 360.000000 0.000000 0.000000 270.000000 4.245440 10.434300 27.522600 360.000000 16.042500 0.000000 360.000000 357.368610 333.877300 0.000000 360.000000 0.000000 5.998560 337.527000 328.064200 0.000000 358.318010 0.000000 359.999999 36.037400 41.993800 360.000000 0.000000 360.000000 
38.360500 88.955800 116.153000 2.272830 350.559560 139.151000 3.943190 352.012280 0.000000 360.000000 0.000000 0.858782 0.000000 0.000000 0.000000 0.000000 0.000000 0.000000 0.000000 0.000000 0.000000 0.000000 0.000000 0.000000 25.857400 345.613400 357.006540 0.000000 309.268100 0.000000 360.000000 0.000000 90.000000 0.000000 0.000000 0.000000 336.936900 32.398300 47.953000 360.000000 343.636300 0.000000 0.000000 360.000000 270.000000 7.784140 11.195200 25.543400 0.000000 20.055100 360.000000 0.000000 359.745536 334.323300 0.000000 0.000000 0.000000 7.279670 339.925300 328.823300 360.000000 359.705364 360.000000 359.999998 36.528700 37.848000 360.000000 0.000000 360.000000 
41.554500 89.459100 113.735000 3.599200 348.823200 140.596000 5.873960 350.260940 0.000000 0.000000 0.000000 2.084670 0.000000 0.000000 0.000000 0.000000 0.000000 0.000000 0.000000 0.000000 0.000000 0.000000 0.000000 0.000000 24.166000 348.026600 356.020380 0.000000 314.852300 0.000000 0.000000 0.000000 90.000000 0.000000 0.000000 0.000000 336.803000 30.193600 49.888800 0.000000 343.497200 360.000000 360.000000 0.000000 270.000000 11.801500 9.273920 23.407000 0.000000 26.912300 0.000000 0.000000 3.377610 335.716300 360.000000 0.000000 0.000000 9.134750 341.245200 329.878000 360.000000 1.856200 360.000000 359.999998 33.034000 36.124300 0.000000 360.000000 360.000000 
43.831400 90.338300 111.192000 7.106860 353.217080 145.146000 5.252890 356.059620 0.000000 0.000000 0.000000 0.938771 0.000000 0.000000 0.000000 0.000000 0.000000 0.000000 0.000000 0.000000 0.000000 0.000000 0.000000 0.000000 22.235600 349.395200 355.142940 360.000000 319.808700 0.000000 0.000000 0.000000 90.000000 0.000000 0.000000 0.000000 335.973700 26.527100 51.352700 0.000000 341.200300 360.000000 360.000000 0.000000 270.000000 13.515700 9.825040 15.755500 0.000000 36.596700 360.000000 0.000000 10.489500 341.579900 0.000000 360.000000 360.000000 7.788240 348.483600 324.245500 0.000000 3.355450 360.000000 0.000001 29.883800 37.081300 360.000000 360.000000 0.000000 
45.994600 90.951700 109.008000 7.215080 353.692920 148.076000 4.774150 356.493550 0.000000 0.000000 360.000000 1.423810 0.000000 0.000000 0.000000 0.000000 0.000000 0.000000 0.000000 0.000000 0.000000 0.000000 0.000000 0.000000 20.425600 351.620190 354.362870 0.000000 325.252900 0.000000 360.000000 0.000000 90.000000 0.000000 0.000000 0.000000 335.580600 22.259600 44.880100 360.000000 338.032200 0.000000 360.000000 360.000000 270.000000 14.267500 4.417430 12.327600 360.000000 47.170300 0.000000 360.000000 16.951900 348.199900 360.000000 360.000000 0.000000 7.424390 351.082650 318.865700 0.000000 3.172010 360.000000 0.000001 28.548200 40.083500 0.000000 0.000000 360.000000 
47.949500 91.297800 106.979000 7.608680 354.281660 150.231000 4.557910 357.452220 0.000000 360.000000 0.000000 3.224180 0.000000 0.000000 0.000000 0.000000 0.000000 0.000000 0.000000 0.000000 0.000000 0.000000 0.000000 0.000000 18.936200 353.558640 353.266790 360.000000 330.886800 0.000000 360.000000 360.000000 90.000000 0.000000 0.000000 0.000000 333.773700 17.801100 44.082000 0.000000 335.443600 0.000000 360.000000 0.000000 270.000000 14.807400 359.428668 11.650000 0.000000 56.298300 360.000000 360.000000 21.279300 356.187820 360.000000 360.000000 360.000000 7.727250 353.803640 315.903800 0.000000 2.695040 360.000000 0.000001 26.905400 41.252300 360.000000 360.000000 0.000000 
49.806000 91.538400 104.941000 7.459900 355.176910 152.031000 3.845810 358.030580 0.000000 0.000000 0.000000 4.860360 360.000000 360.000000 0.000000 360.000000 360.000000 0.000000 360.000000 360.000000 0.000000 360.000000 360.000000 0.000000 17.869500 355.899470 352.225900 0.000000 336.929600 0.000000 360.000000 0.000000 90.000000 360.000000 360.000000 0.000000 331.946500 12.038300 43.478900 0.000000 335.374500 360.000000 0.000000 0.000000 270.000000 14.463400 354.951420 12.039500 0.000000 62.836300 360.000000 360.000000 16.999100 2.177350 0.000000 360.000000 360.000000 7.732170 356.522640 314.736800 360.000000 2.056920 0.000000 0.000000 24.594400 40.684000 360.000000 0.000000 360.000000 
51.369100 91.614400 102.910000 7.602690 357.079120 153.397000 2.833310 0.449400 0.000000 360.000000 360.000000 7.745460 0.000000 360.000000 0.000000 0.000000 0.000000 0.000000 0.000000 360.000000 0.000000 0.000000 360.000000 0.000000 17.053000 358.284120 351.590370 360.000000 340.891500 360.000000 0.000000 360.000000 90.000000 0.000000 360.000000 0.000000 329.603200 6.919100 40.298000 360.000000 334.909400 0.000000 360.000000 360.000000 270.000000 13.213200 352.045160 11.930700 0.000000 66.104000 360.000000 0.000000 12.784100 3.887940 360.000000 0.000000 360.000000 7.421620 0.081559 313.173600 0.000000 1.624930 360.000000 360.000000 22.763700 40.783300 360.000000 0.000000 0.000000 
52.882600 91.721600 100.826000 7.385170 357.782300 154.965000 2.233380 0.975567 0.000000 360.000000 360.000000 9.676510 0.000000 360.000000 0.000000 360.000000 360.000000 360.000000 360.000000 360.000000 0.000000 360.000000 360.000000 0.000000 16.694600 1.430100 351.952180 0.000000 344.557300 360.000000 360.000000 0.000000 90.000000 360.000000 360.000000 0.000000 327.195800 1.162520 37.233600 0.000000 335.998000 360.000000 360.000000 0.000000 270.000000 12.453300 348.279900 12.867600 0.000000 66.288000 360.000000 0.000000 11.375300 3.182280 0.000000 0.000000 0.000000 7.417320 2.335940 311.400600 360.000000 1.333720 360.000000 0.000000 21.297600 40.868900 360.000000 0.000000 0.000000 
54.265800 91.824400 98.748400 7.033620 358.252890 156.618000 1.633050 1.446410 360.000000 0.000000 0.000000 11.299700 0.000000 0.000000 360.000000 360.000000 360.000000 360.000000 0.000000 360.000000 360.000000 0.000000 360.000000 360.000000 16.704900 4.906920 353.668260 0.000000 346.919000 0.000000 0.000000 0.000000 90.000000 0.000000 360.000000 360.000000 324.253800 355.983820 33.499500 360.000000 336.064300 0.000000 0.000000 0.000000 270.000000 11.409700 344.887000 13.874100 0.000000 63.533100 360.000000 0.000000 9.023350 2.377520 0.000000 0.000000 0.000000 7.243120 4.147940 309.466000 0.000000 1.573710 360.000000 0.000001 19.673700 40.950100 0.000000 360.000000 0.000000 
